<?xml version="1.0" standalone="no"?>
<!DOCTYPE svg PUBLIC "-//W3C//DTD SVG 20010904//EN"
 "http://www.w3.org/TR/2001/REC-SVG-20010904/DTD/svg10.dtd">
<svg version="1.0" xmlns="http://www.w3.org/2000/svg"
 width="96.000000pt" height="96.000000pt" viewBox="0 0 96.000000 96.000000"
 preserveAspectRatio="xMidYMid meet">
<metadata>
Created by potrace 1.11, written by Peter Selinger 2001-2013
</metadata>
<g transform="translate(0.000000,96.000000) scale(0.100000,-0.100000)"
fill="#000000" stroke="none">
<path d="M225 860 c-61 -25 -89 -102 -60 -163 28 -59 59 -67 249 -67 164 0
167 0 191 25 14 13 25 35 25 48 0 46 -29 65 -155 103 -66 20 -132 43 -147 50
-30 15 -72 17 -103 4z m113 -55 c32 -37 29 -80 -8 -117 -27 -26 -36 -30 -67
-25 -47 8 -72 33 -80 80 -5 31 -1 40 26 68 28 27 37 31 69 26 22 -4 46 -17 60
-32z m109 -22 c42 -13 52 -20 46 -32 -4 -9 -7 -33 -7 -53 l0 -38 -70 0 -69 0
19 21 c13 15 19 36 19 70 0 27 2 49 4 49 2 0 28 -8 58 -17z m137 -49 c23 -23
20 -53 -8 -65 -28 -13 -66 3 -66 27 0 47 43 70 74 38z"/>
<path d="M230 790 c-11 -11 -20 -29 -20 -40 0 -25 34 -60 58 -60 32 0 62 29
62 60 0 53 -62 78 -100 40z"/>
<path d="M160 581 c-6 -11 -10 -90 -10 -185 0 -190 -2 -186 95 -186 l57 0 -27
-46 c-40 -67 -29 -74 115 -74 145 0 155 7 116 75 l-27 45 56 0 c80 0 95 11 95
66 l0 46 65 -36 c53 -29 69 -34 90 -26 25 9 25 10 25 144 0 173 -5 177 -127
113 l-53 -27 0 35 c0 77 6 75 -240 75 -207 0 -220 -1 -230 -19z m435 -176 l0
-160 -205 0 -205 0 -3 163 -2 162 207 -2 208 -3 0 -160z m125 0 l0 -95 -45 22
c-45 22 -45 22 -45 73 0 50 1 51 43 72 23 12 43 22 45 22 1 1 2 -42 2 -94z
m-270 -210 c11 -13 3 -15 -60 -15 -63 0 -71 2 -60 15 8 9 30 15 60 15 30 0 52
-6 60 -15z m38 -62 c3 -10 -21 -13 -97 -13 -93 0 -113 5 -94 24 13 12 186 2
191 -11z"/>
<path d="M216 524 c-9 -23 -7 -227 2 -242 7 -9 49 -12 178 -10 l169 3 0 130 0
130 -171 3 c-150 2 -172 0 -178 -14z m264 -119 l0 -105 -120 0 -120 0 0 105 0
105 120 0 120 0 0 -105z m60 0 c0 -87 -3 -105 -15 -105 -12 0 -15 18 -15 105
0 87 3 105 15 105 12 0 15 -18 15 -105z"/>
<path d="M270 465 c0 -12 17 -15 90 -15 73 0 90 3 90 15 0 12 -17 15 -90 15
-73 0 -90 -3 -90 -15z"/>
</g>
</svg>
